<?xml version="1.0" encoding="UTF-8"?>
<svg id="Layer_1" xmlns="http://www.w3.org/2000/svg" version="1.1" viewBox="0 0 5000 5000">
  <!-- Generator: Adobe Illustrator 29.5.1, SVG Export Plug-In . SVG Version: 2.1.0 Build 141)  -->
  <defs>
    <style>
      .st0 {
        fill: #231f20;
      }

      .st1 {
        fill: #fff;
      }
    </style>
  </defs>
  <rect class="st1" width="5000" height="5000"/>
  <rect class="st1" width="5000" height="5000"/>
  <g>
    <path class="st0" d="M2499.99,441.17c-688.99,0-1249.53,560.56-1249.53,1249.57v1618.55c0,689.01,560.54,1249.55,1249.53,1249.55s1249.55-560.54,1249.55-1249.55v-1618.55c0-689.01-560.54-1249.57-1249.55-1249.57ZM3642.88,3309.28c0,630.19-512.7,1142.89-1142.89,1142.89s-1142.87-512.7-1142.87-1142.89v-1618.55c0-630.21,512.68-1142.91,1142.87-1142.91s1142.89,512.7,1142.89,1142.91v1618.55Z"/>
    <path class="st0" d="M2499.99,1954.88c113.5,0,205.82-92.32,205.82-205.78v-497.01c0-113.48-92.32-205.8-205.82-205.8s-205.78,92.32-205.78,205.8v497.01c0,113.46,92.32,205.78,205.78,205.78ZM2400.87,1252.09c0-54.67,44.48-99.14,99.12-99.14s99.16,44.48,99.16,99.14v497.01c0,54.65-44.48,99.12-99.16,99.12s-99.12-44.48-99.12-99.12v-497.01Z"/>
    <path class="st0" d="M2499.99,1669.9c29.44,0,53.33-23.89,53.33-53.33v-224.95c0-29.44-23.89-53.33-53.33-53.33s-53.33,23.89-53.33,53.33v224.95c0,29.44,23.89,53.33,53.33,53.33Z"/>
    <path class="st0" d="M2537.49,2149.41c-2.12-2.5-4.96-4.62-7.81-6.77-2.85-1.77-6.04-3.54-9.24-4.96-3.19-1.08-6.77-2.15-9.96-2.85-17.43-3.54-35.9,2.12-48.33,14.58-2.15,2.5-4.65,4.96-6.42,8.16-2.12,2.85-3.54,5.69-4.96,8.89-1.42,3.58-2.5,6.77-3.19,10.31-.73,3.19-1.08,6.77-1.08,10.31,0,14.24,5.69,27.74,15.66,37.71,5.31,4.96,11.01,8.89,17.39,11.35,6.42,2.85,13.51,4.27,20.62,4.27,14.23,0,27.39-5.69,37.32-15.62,10.31-10.31,16.01-23.47,16.01-37.71s-6.04-27.71-16.01-37.67Z"/>
    <path class="st0" d="M2552.07,2349.22c-.35-3.19-1.42-6.77-2.85-9.96-1.42-3.19-2.85-6.39-4.96-9.24-1.77-2.85-4.27-5.69-6.77-8.19-12.08-12.08-30.55-17.78-47.98-14.58-3.19.73-6.77,1.81-9.96,3.23-3.19,1.42-6.39,2.81-9.24,4.96-2.85,1.77-5.69,4.27-8.16,6.39-2.5,2.5-4.65,5.35-6.42,8.19-2.12,2.85-3.54,6.04-4.96,9.24-1.42,3.19-2.5,6.77-3.19,9.96-.73,3.54-1.08,7.12-1.08,10.66,0,13.85,5.69,27.36,15.66,37.67,10.28,9.96,23.44,15.66,37.67,15.66,7.12,0,14.23-1.42,20.62-4.27,6.39-2.5,12.08-6.39,17.05-11.39,10.31-10.31,16.01-23.82,16.01-37.67,0-3.54-.69-7.12-1.42-10.66Z"/>
    <path class="st0" d="M2489.51,2480.04c-3.19.73-6.77,1.77-9.96,3.19-3.19,1.42-6.39,2.85-9.24,5-2.85,1.77-5.69,3.89-8.16,6.39-9.62,9.96-15.31,23.82-15.31,37.67s5.35,27.74,15.31,37.71c10.28,10.31,23.44,15.62,37.67,15.62s27.74-5.31,37.67-15.62c10.31-9.96,16.01-23.47,16.01-37.71s-6.04-27.71-16.01-37.67c-12.08-12.46-30.55-18.12-47.98-14.58Z"/>
    <path class="st0" d="M2767.54,2563.79c-21.42-20.14-55.2-19.1-75.38,2.4l-177.45,189.02-209.74-191.87c-21.7-19.86-55.41-18.4-75.34,3.33-19.89,21.73-18.4,55.48,3.33,75.34l248.59,227.41c.25.23.5.44.75.66.32.29.65.58.98.85.32.26.64.52.96.77.35.28.71.57,1.07.84.32.24.65.48.97.71.36.26.73.53,1.09.78.34.24.69.46,1.04.69.35.23.71.47,1.07.69.38.24.77.46,1.16.69.33.19.66.39.99.58.44.24.88.47,1.32.7.29.15.58.31.88.46.49.24.99.47,1.48.7.25.12.5.24.75.35.55.24,1.1.46,1.65.69.21.08.42.18.63.26.6.23,1.2.44,1.8.65.17.06.34.13.52.18.64.21,1.28.41,1.93.6.14.04.28.09.42.13.67.19,1.35.36,2.02.52.12.03.24.06.36.09.68.16,1.37.3,2.06.43.12.02.23.05.35.07.68.13,1.36.23,2.05.33.13.02.25.04.38.06.66.09,1.32.16,1.99.23.15.02.3.04.45.05.65.06,1.3.1,1.95.13.16,0,.33.03.49.03.81.04,1.63.06,2.44.06.89,0,1.79-.02,2.68-.07.43-.02.87-.07,1.3-.1.46-.03.91-.06,1.37-.1.56-.06,1.12-.14,1.67-.21.33-.04.65-.07.98-.12.62-.09,1.24-.21,1.86-.33.26-.05.52-.09.77-.14.65-.13,1.29-.29,1.94-.44.23-.05.45-.1.68-.16.65-.17,1.3-.36,1.95-.55.21-.06.43-.12.64-.18.64-.2,1.28-.42,1.92-.65.21-.07.43-.14.64-.22.62-.23,1.23-.48,1.85-.73.23-.09.45-.18.68-.27.59-.25,1.16-.52,1.74-.79.25-.12.5-.22.74-.34.55-.27,1.08-.55,1.62-.84.27-.14.55-.28.82-.43.51-.28,1-.58,1.5-.88.29-.18.59-.34.88-.52.47-.29.92-.6,1.38-.91.32-.21.63-.41.94-.63.43-.3.84-.62,1.26-.93.33-.25.67-.49.99-.74.39-.31.78-.63,1.17-.95.34-.28.68-.56,1.02-.85.37-.32.73-.66,1.09-.99.34-.31.68-.62,1.01-.94.35-.34.69-.69,1.03-1.04.26-.26.52-.51.77-.78l213.49-227.41c20.14-21.46,19.1-55.2-2.4-75.38Z"/>
  </g>
</svg>