<?xml version="1.0" encoding="utf-8"?>
<!-- Generator: Adobe Adobe Illustrator 29.2.0, SVG Export Plug-In . SVG Version: 6.00 Build 0)  -->
<svg version="1.1" id="XMLID_00000019675219015842047000000014237639315607123115_"
	 xmlns="http://www.w3.org/2000/svg" xmlns:xlink="http://www.w3.org/1999/xlink" x="0px" y="0px" width="52.5px" height="68.5px"
	 viewBox="0 0 52.5 68.5" style="enable-background:new 0 0 52.5 68.5;" xml:space="preserve">
<style type="text/css">
	.st0{fill:#FFFFFF;}
	.st1{fill:#E8E8E8;}
	.st2{font-family:'SourceSansPro-Regular';}
	.st3{font-size:6px;}
</style>
<rect x="1.35" y="7.55" class="st0" width="52.28" height="60.95"/>
<g>
	<g>
		<g>
			<g>
				<rect x="32.29" y="1.61" class="st1" width="1.12" height="2.39"/>
				<rect x="33.41" y="3.99" class="st1" width="1.12" height="2.39"/>
				<rect x="34.54" y="1.61" class="st1" width="1.12" height="2.39"/>
				<rect x="35.66" y="3.99" class="st1" width="1.12" height="2.39"/>
				<rect x="32.29" y="6.38" class="st1" width="1.12" height="2.39"/>
				<rect x="33.41" y="8.77" class="st1" width="1.12" height="2.39"/>
				<rect x="34.54" y="6.38" class="st1" width="1.12" height="2.39"/>
				<rect x="35.66" y="8.77" class="st1" width="1.12" height="2.39"/>
				<rect x="36.78" y="1.61" class="st1" width="1.12" height="2.39"/>
				<rect x="37.9" y="3.99" class="st1" width="1.12" height="2.39"/>
				<rect x="39.03" y="1.61" class="st1" width="1.12" height="2.39"/>
				<rect x="40.15" y="3.99" class="st1" width="1.12" height="2.39"/>
				<rect x="36.78" y="6.38" class="st1" width="1.12" height="2.39"/>
				<rect x="37.9" y="8.77" class="st1" width="1.12" height="2.39"/>
				<rect x="39.03" y="6.38" class="st1" width="1.12" height="2.39"/>
				<rect x="40.15" y="8.77" class="st1" width="1.12" height="2.39"/>
				<rect x="32.29" y="11.16" class="st1" width="1.12" height="2.39"/>
				<rect x="33.41" y="13.55" class="st1" width="1.12" height="2.39"/>
				<rect x="34.54" y="11.16" class="st1" width="1.12" height="2.39"/>
				<rect x="35.66" y="13.55" class="st1" width="1.12" height="2.39"/>
				<rect x="32.29" y="15.94" class="st1" width="1.12" height="2.39"/>
				<rect x="33.41" y="18.33" class="st1" width="1.12" height="2.39"/>
				<rect x="34.54" y="15.94" class="st1" width="1.12" height="2.39"/>
				<rect x="35.66" y="18.33" class="st1" width="1.12" height="2.39"/>
				<rect x="36.78" y="11.16" class="st1" width="1.12" height="2.39"/>
				<rect x="37.9" y="13.55" class="st1" width="1.12" height="2.39"/>
				<rect x="39.03" y="11.16" class="st1" width="1.12" height="2.39"/>
				<rect x="40.15" y="13.55" class="st1" width="1.12" height="2.39"/>
				<rect x="36.78" y="15.94" class="st1" width="1.12" height="2.39"/>
				<rect x="37.9" y="18.33" class="st1" width="1.12" height="2.39"/>
				<rect x="39.03" y="15.94" class="st1" width="1.12" height="2.39"/>
				<rect x="40.15" y="18.33" class="st1" width="1.12" height="2.39"/>
				<rect x="41.27" y="1.61" class="st1" width="1.12" height="2.39"/>
				<rect x="42.4" y="3.99" class="st1" width="1.12" height="2.39"/>
				<rect x="43.52" y="1.61" class="st1" width="1.12" height="2.39"/>
				<rect x="44.64" y="3.99" class="st1" width="1.12" height="2.39"/>
				<rect x="41.27" y="6.38" class="st1" width="1.12" height="2.39"/>
				<rect x="42.4" y="8.77" class="st1" width="1.12" height="2.39"/>
				<rect x="43.52" y="6.38" class="st1" width="1.12" height="2.39"/>
				<rect x="44.64" y="8.77" class="st1" width="1.12" height="2.39"/>
				<rect x="45.76" y="1.61" class="st1" width="1.12" height="2.39"/>
				<rect x="46.89" y="3.99" class="st1" width="1.12" height="2.39"/>
				<rect x="48.01" y="1.61" class="st1" width="1.12" height="2.39"/>
				<rect x="49.13" y="3.99" class="st1" width="1.12" height="2.39"/>
				<rect x="45.76" y="6.38" class="st1" width="1.12" height="2.39"/>
				<rect x="46.89" y="8.77" class="st1" width="1.12" height="2.39"/>
				<rect x="48.01" y="6.38" class="st1" width="1.12" height="2.39"/>
				<rect x="49.13" y="8.77" class="st1" width="1.12" height="2.39"/>
				<rect x="41.27" y="11.16" class="st1" width="1.12" height="2.39"/>
				<rect x="42.4" y="13.55" class="st1" width="1.12" height="2.39"/>
				<rect x="43.52" y="11.16" class="st1" width="1.12" height="2.39"/>
				<rect x="44.64" y="13.55" class="st1" width="1.12" height="2.39"/>
				<rect x="41.27" y="15.94" class="st1" width="1.12" height="2.39"/>
				<rect x="42.4" y="18.33" class="st1" width="1.12" height="2.39"/>
				<rect x="43.52" y="15.94" class="st1" width="1.12" height="2.39"/>
				<rect x="44.64" y="18.33" class="st1" width="1.12" height="2.39"/>
				<rect x="45.76" y="11.16" class="st1" width="1.12" height="2.39"/>
				<rect x="46.89" y="13.55" class="st1" width="1.12" height="2.39"/>
				<rect x="48.01" y="11.16" class="st1" width="1.12" height="2.39"/>
				<rect x="49.13" y="13.55" class="st1" width="1.12" height="2.39"/>
				<rect x="45.76" y="15.94" class="st1" width="1.12" height="2.39"/>
				<rect x="46.89" y="18.33" class="st1" width="1.12" height="2.39"/>
				<rect x="48.01" y="15.94" class="st1" width="1.12" height="2.39"/>
				<rect x="49.13" y="18.33" class="st1" width="1.12" height="2.39"/>
				<rect x="32.29" y="20.72" class="st1" width="1.12" height="2.39"/>
				<rect x="33.41" y="23.11" class="st1" width="1.12" height="2.39"/>
				<rect x="34.54" y="20.72" class="st1" width="1.12" height="2.39"/>
				<rect x="35.66" y="23.11" class="st1" width="1.12" height="2.39"/>
				<rect x="32.29" y="25.5" class="st1" width="1.12" height="2.39"/>
				<rect x="33.41" y="27.89" class="st1" width="1.12" height="2.39"/>
				<rect x="34.54" y="25.5" class="st1" width="1.12" height="2.39"/>
				<rect x="35.66" y="27.89" class="st1" width="1.12" height="2.39"/>
				<rect x="36.78" y="20.72" class="st1" width="1.12" height="2.39"/>
				<rect x="37.9" y="23.11" class="st1" width="1.12" height="2.39"/>
				<rect x="39.03" y="20.72" class="st1" width="1.12" height="2.39"/>
				<rect x="40.15" y="23.11" class="st1" width="1.12" height="2.39"/>
				<rect x="36.78" y="25.5" class="st1" width="1.12" height="2.39"/>
				<rect x="37.9" y="27.89" class="st1" width="1.12" height="2.39"/>
				<rect x="39.03" y="25.5" class="st1" width="1.12" height="2.39"/>
				<rect x="40.15" y="27.89" class="st1" width="1.12" height="2.39"/>
				<rect x="32.29" y="30.27" class="st1" width="1.12" height="2.39"/>
				<rect x="33.41" y="32.66" class="st1" width="1.12" height="2.39"/>
				<rect x="34.54" y="30.27" class="st1" width="1.12" height="2.39"/>
				<rect x="35.66" y="32.66" class="st1" width="1.12" height="2.39"/>
				<rect x="32.29" y="35.05" class="st1" width="1.12" height="2.39"/>
				<rect x="33.41" y="37.44" class="st1" width="1.12" height="2.39"/>
				<rect x="34.54" y="35.05" class="st1" width="1.12" height="2.39"/>
				<rect x="35.66" y="37.44" class="st1" width="1.12" height="2.39"/>
				<rect x="36.78" y="30.27" class="st1" width="1.12" height="2.39"/>
				<rect x="37.9" y="32.66" class="st1" width="1.12" height="2.39"/>
				<rect x="39.03" y="30.27" class="st1" width="1.12" height="2.39"/>
				<rect x="40.15" y="32.66" class="st1" width="1.12" height="2.39"/>
				<rect x="36.78" y="35.05" class="st1" width="1.12" height="2.39"/>
				<rect x="37.9" y="37.44" class="st1" width="1.12" height="2.39"/>
				<rect x="39.03" y="35.05" class="st1" width="1.12" height="2.39"/>
				<rect x="40.15" y="37.44" class="st1" width="1.12" height="2.39"/>
				<rect x="41.27" y="20.72" class="st1" width="1.12" height="2.39"/>
				<rect x="42.4" y="23.11" class="st1" width="1.12" height="2.39"/>
				<rect x="43.52" y="20.72" class="st1" width="1.12" height="2.39"/>
				<rect x="44.64" y="23.11" class="st1" width="1.12" height="2.39"/>
				<rect x="41.27" y="25.5" class="st1" width="1.12" height="2.39"/>
				<rect x="42.4" y="27.89" class="st1" width="1.12" height="2.39"/>
				<rect x="43.52" y="25.5" class="st1" width="1.12" height="2.39"/>
				<rect x="44.64" y="27.89" class="st1" width="1.12" height="2.39"/>
				<rect x="45.76" y="20.72" class="st1" width="1.12" height="2.39"/>
				<rect x="46.89" y="23.11" class="st1" width="1.12" height="2.39"/>
				<rect x="48.01" y="20.72" class="st1" width="1.12" height="2.39"/>
				<rect x="49.13" y="23.11" class="st1" width="1.12" height="2.39"/>
				<rect x="45.76" y="25.5" class="st1" width="1.12" height="2.39"/>
				<rect x="46.89" y="27.89" class="st1" width="1.12" height="2.39"/>
				<rect x="48.01" y="25.5" class="st1" width="1.12" height="2.39"/>
				<rect x="49.13" y="27.89" class="st1" width="1.12" height="2.39"/>
				<rect x="41.27" y="30.27" class="st1" width="1.12" height="2.39"/>
				<rect x="42.4" y="32.66" class="st1" width="1.12" height="2.39"/>
				<rect x="43.52" y="30.27" class="st1" width="1.12" height="2.39"/>
				<rect x="44.64" y="32.66" class="st1" width="1.12" height="2.39"/>
				<rect x="41.27" y="35.05" class="st1" width="1.12" height="2.39"/>
				<rect x="42.4" y="37.44" class="st1" width="1.12" height="2.39"/>
				<rect x="43.52" y="35.05" class="st1" width="1.12" height="2.39"/>
				<rect x="44.64" y="37.44" class="st1" width="1.12" height="2.39"/>
				<rect x="45.76" y="30.27" class="st1" width="1.12" height="2.39"/>
				<rect x="46.89" y="32.66" class="st1" width="1.12" height="2.39"/>
				<rect x="48.01" y="30.27" class="st1" width="1.12" height="2.39"/>
				<rect x="49.13" y="32.66" class="st1" width="1.12" height="2.39"/>
				<rect x="45.76" y="35.05" class="st1" width="1.12" height="2.39"/>
				<rect x="46.89" y="37.44" class="st1" width="1.12" height="2.39"/>
				<rect x="48.01" y="35.05" class="st1" width="1.12" height="2.39"/>
				<rect x="49.13" y="37.44" class="st1" width="1.12" height="2.39"/>
				<rect x="50.25" y="1.61" class="st1" width="1.12" height="2.39"/>
				<rect x="51.38" y="3.99" class="st1" width="1.12" height="2.39"/>
				<rect x="50.25" y="6.38" class="st1" width="1.12" height="2.39"/>
				<rect x="51.38" y="8.77" class="st1" width="1.12" height="2.39"/>
				<rect x="50.25" y="11.16" class="st1" width="1.12" height="2.39"/>
				<rect x="51.38" y="13.55" class="st1" width="1.12" height="2.39"/>
				<rect x="50.25" y="15.94" class="st1" width="1.12" height="2.39"/>
				<rect x="51.38" y="18.33" class="st1" width="1.12" height="2.39"/>
				<rect x="50.25" y="20.72" class="st1" width="1.12" height="2.39"/>
				<rect x="51.38" y="23.11" class="st1" width="1.12" height="2.39"/>
				<rect x="50.25" y="25.5" class="st1" width="1.12" height="2.39"/>
				<rect x="51.38" y="27.89" class="st1" width="1.12" height="2.39"/>
				<rect x="50.25" y="30.27" class="st1" width="1.12" height="2.39"/>
				<rect x="51.38" y="32.66" class="st1" width="1.12" height="2.39"/>
				<rect x="50.25" y="35.05" class="st1" width="1.12" height="2.39"/>
				<rect x="51.38" y="37.44" class="st1" width="1.12" height="2.39"/>
			</g>
			<g>
				<rect x="32.29" y="39.83" class="st1" width="1.12" height="2.39"/>
				<rect x="33.41" y="42.22" class="st1" width="1.12" height="2.39"/>
				<rect x="34.54" y="39.83" class="st1" width="1.12" height="2.39"/>
				<rect x="35.66" y="42.22" class="st1" width="1.12" height="2.39"/>
				<rect x="32.29" y="44.61" class="st1" width="1.12" height="2.39"/>
				<rect x="33.41" y="47" class="st1" width="1.12" height="2.39"/>
				<rect x="34.54" y="44.61" class="st1" width="1.12" height="2.39"/>
				<rect x="35.66" y="47" class="st1" width="1.12" height="2.39"/>
				<rect x="36.78" y="39.83" class="st1" width="1.12" height="2.39"/>
				<rect x="37.9" y="42.22" class="st1" width="1.12" height="2.39"/>
				<rect x="39.03" y="39.83" class="st1" width="1.12" height="2.39"/>
				<rect x="40.15" y="42.22" class="st1" width="1.12" height="2.39"/>
				<rect x="36.78" y="44.61" class="st1" width="1.12" height="2.39"/>
				<rect x="37.9" y="47" class="st1" width="1.12" height="2.39"/>
				<rect x="39.03" y="44.61" class="st1" width="1.12" height="2.39"/>
				<rect x="40.15" y="47" class="st1" width="1.12" height="2.39"/>
				<rect x="32.29" y="49.39" class="st1" width="1.12" height="2.39"/>
				<rect x="33.41" y="51.78" class="st1" width="1.12" height="2.39"/>
				<rect x="34.54" y="49.39" class="st1" width="1.12" height="2.39"/>
				<rect x="35.66" y="51.78" class="st1" width="1.12" height="2.39"/>
				<rect x="32.29" y="54.17" class="st1" width="1.12" height="2.39"/>
				<rect x="33.41" y="56.55" class="st1" width="1.12" height="2.39"/>
				<rect x="34.54" y="54.17" class="st1" width="1.12" height="2.39"/>
				<rect x="35.66" y="56.55" class="st1" width="1.12" height="2.39"/>
				<rect x="36.78" y="49.39" class="st1" width="1.12" height="2.39"/>
				<rect x="37.9" y="51.78" class="st1" width="1.12" height="2.39"/>
				<rect x="39.03" y="49.39" class="st1" width="1.12" height="2.39"/>
				<rect x="40.15" y="51.78" class="st1" width="1.12" height="2.39"/>
				<rect x="36.78" y="54.17" class="st1" width="1.12" height="2.39"/>
				<rect x="37.9" y="56.55" class="st1" width="1.12" height="2.39"/>
				<rect x="39.03" y="54.17" class="st1" width="1.12" height="2.39"/>
				<rect x="40.15" y="56.55" class="st1" width="1.12" height="2.39"/>
				<rect x="41.27" y="39.83" class="st1" width="1.12" height="2.39"/>
				<rect x="42.4" y="42.22" class="st1" width="1.12" height="2.39"/>
				<rect x="43.52" y="39.83" class="st1" width="1.12" height="2.39"/>
				<rect x="44.64" y="42.22" class="st1" width="1.12" height="2.39"/>
				<rect x="41.27" y="44.61" class="st1" width="1.12" height="2.39"/>
				<rect x="42.4" y="47" class="st1" width="1.12" height="2.39"/>
				<rect x="43.52" y="44.61" class="st1" width="1.12" height="2.39"/>
				<rect x="44.64" y="47" class="st1" width="1.12" height="2.39"/>
				<rect x="45.76" y="39.83" class="st1" width="1.12" height="2.39"/>
				<rect x="46.89" y="42.22" class="st1" width="1.12" height="2.39"/>
				<rect x="48.01" y="39.83" class="st1" width="1.12" height="2.39"/>
				<rect x="49.13" y="42.22" class="st1" width="1.12" height="2.39"/>
				<rect x="45.76" y="44.61" class="st1" width="1.12" height="2.39"/>
				<rect x="46.89" y="47" class="st1" width="1.12" height="2.39"/>
				<rect x="48.01" y="44.61" class="st1" width="1.12" height="2.39"/>
				<rect x="49.13" y="47" class="st1" width="1.12" height="2.39"/>
				<rect x="41.27" y="49.39" class="st1" width="1.12" height="2.39"/>
				<rect x="42.4" y="51.78" class="st1" width="1.12" height="2.39"/>
				<rect x="43.52" y="49.39" class="st1" width="1.12" height="2.39"/>
				<rect x="44.64" y="51.78" class="st1" width="1.12" height="2.39"/>
				<rect x="41.27" y="54.17" class="st1" width="1.12" height="2.39"/>
				<rect x="42.4" y="56.55" class="st1" width="1.12" height="2.39"/>
				<rect x="43.52" y="54.17" class="st1" width="1.12" height="2.39"/>
				<rect x="44.64" y="56.55" class="st1" width="1.12" height="2.39"/>
				<rect x="45.76" y="49.39" class="st1" width="1.12" height="2.39"/>
				<rect x="46.89" y="51.78" class="st1" width="1.12" height="2.39"/>
				<rect x="48.01" y="49.39" class="st1" width="1.12" height="2.39"/>
				<rect x="49.13" y="51.78" class="st1" width="1.12" height="2.39"/>
				<rect x="45.76" y="54.17" class="st1" width="1.12" height="2.39"/>
				<rect x="46.89" y="56.55" class="st1" width="1.12" height="2.39"/>
				<rect x="48.01" y="54.17" class="st1" width="1.12" height="2.39"/>
				<rect x="49.13" y="56.55" class="st1" width="1.12" height="2.39"/>
				<rect x="32.29" y="58.94" class="st1" width="1.12" height="2.39"/>
				<rect x="33.41" y="61.33" class="st1" width="1.12" height="2.39"/>
				<rect x="34.54" y="58.94" class="st1" width="1.12" height="2.39"/>
				<rect x="35.66" y="61.33" class="st1" width="1.12" height="2.39"/>
				<rect x="32.29" y="63.72" class="st1" width="1.12" height="2.39"/>
				<rect x="33.41" y="66.11" class="st1" width="1.12" height="2.39"/>
				<rect x="34.54" y="63.72" class="st1" width="1.12" height="2.39"/>
				<rect x="35.66" y="66.11" class="st1" width="1.12" height="2.39"/>
				<rect x="36.78" y="58.94" class="st1" width="1.12" height="2.39"/>
				<rect x="37.9" y="61.33" class="st1" width="1.12" height="2.39"/>
				<rect x="39.03" y="58.94" class="st1" width="1.12" height="2.39"/>
				<rect x="40.15" y="61.33" class="st1" width="1.12" height="2.39"/>
				<rect x="36.78" y="63.72" class="st1" width="1.12" height="2.39"/>
				<rect x="37.9" y="66.11" class="st1" width="1.12" height="2.39"/>
				<rect x="39.03" y="63.72" class="st1" width="1.12" height="2.39"/>
				<rect x="40.15" y="66.11" class="st1" width="1.12" height="2.39"/>
				<rect x="41.27" y="58.94" class="st1" width="1.12" height="2.39"/>
				<rect x="42.4" y="61.33" class="st1" width="1.12" height="2.39"/>
				<rect x="43.52" y="58.94" class="st1" width="1.12" height="2.39"/>
				<rect x="44.64" y="61.33" class="st1" width="1.12" height="2.39"/>
				<rect x="41.27" y="63.72" class="st1" width="1.12" height="2.39"/>
				<rect x="42.4" y="66.11" class="st1" width="1.12" height="2.39"/>
				<rect x="43.52" y="63.72" class="st1" width="1.12" height="2.39"/>
				<rect x="44.64" y="66.11" class="st1" width="1.12" height="2.39"/>
				<rect x="45.76" y="58.94" class="st1" width="1.12" height="2.39"/>
				<rect x="46.89" y="61.33" class="st1" width="1.12" height="2.39"/>
				<rect x="48.01" y="58.94" class="st1" width="1.12" height="2.39"/>
				<rect x="49.13" y="61.33" class="st1" width="1.12" height="2.39"/>
				<rect x="45.76" y="63.72" class="st1" width="1.12" height="2.39"/>
				<rect x="46.89" y="66.11" class="st1" width="1.12" height="2.39"/>
				<rect x="48.01" y="63.72" class="st1" width="1.12" height="2.39"/>
				<rect x="49.13" y="66.11" class="st1" width="1.12" height="2.39"/>
				<rect x="50.25" y="39.83" class="st1" width="1.12" height="2.39"/>
				<rect x="51.38" y="42.22" class="st1" width="1.12" height="2.39"/>
				<rect x="50.25" y="44.61" class="st1" width="1.12" height="2.39"/>
				<rect x="51.38" y="47" class="st1" width="1.12" height="2.39"/>
				<rect x="50.25" y="49.39" class="st1" width="1.12" height="2.39"/>
				<rect x="51.38" y="51.78" class="st1" width="1.12" height="2.39"/>
				<rect x="50.25" y="54.17" class="st1" width="1.12" height="2.39"/>
				<rect x="51.38" y="56.55" class="st1" width="1.12" height="2.39"/>
				<rect x="50.25" y="58.94" class="st1" width="1.12" height="2.39"/>
				<rect x="51.38" y="61.33" class="st1" width="1.12" height="2.39"/>
				<rect x="50.25" y="63.72" class="st1" width="1.12" height="2.39"/>
				<rect x="51.38" y="66.11" class="st1" width="1.12" height="2.39"/>
			</g>
		</g>
	</g>
	<g>
		<g>
			<g>
				<rect x="0.85" y="1.61" class="st1" width="1.12" height="2.39"/>
				<rect x="1.98" y="3.99" class="st1" width="1.12" height="2.39"/>
				<rect x="3.1" y="1.61" class="st1" width="1.12" height="2.39"/>
				<rect x="4.22" y="3.99" class="st1" width="1.12" height="2.39"/>
				<rect x="0.85" y="6.38" class="st1" width="1.12" height="2.39"/>
				<rect x="1.98" y="8.77" class="st1" width="1.12" height="2.39"/>
				<rect x="3.1" y="6.38" class="st1" width="1.12" height="2.39"/>
				<rect x="4.22" y="8.77" class="st1" width="1.12" height="2.39"/>
				<rect x="5.35" y="1.61" class="st1" width="1.12" height="2.39"/>
				<rect x="6.47" y="3.99" class="st1" width="1.12" height="2.39"/>
				<rect x="7.59" y="1.61" class="st1" width="1.12" height="2.39"/>
				<rect x="8.71" y="3.99" class="st1" width="1.12" height="2.39"/>
				<rect x="5.35" y="6.38" class="st1" width="1.12" height="2.39"/>
				<rect x="6.47" y="8.77" class="st1" width="1.12" height="2.39"/>
				<rect x="7.59" y="6.38" class="st1" width="1.12" height="2.39"/>
				<rect x="8.71" y="8.77" class="st1" width="1.12" height="2.39"/>
				<rect x="0.85" y="11.16" class="st1" width="1.12" height="2.39"/>
				<rect x="1.98" y="13.55" class="st1" width="1.12" height="2.39"/>
				<rect x="3.1" y="11.16" class="st1" width="1.12" height="2.39"/>
				<rect x="4.22" y="13.55" class="st1" width="1.12" height="2.39"/>
				<rect x="0.85" y="15.94" class="st1" width="1.12" height="2.39"/>
				<rect x="1.98" y="18.33" class="st1" width="1.12" height="2.39"/>
				<rect x="3.1" y="15.94" class="st1" width="1.12" height="2.39"/>
				<rect x="4.22" y="18.33" class="st1" width="1.12" height="2.39"/>
				<rect x="5.35" y="11.16" class="st1" width="1.12" height="2.39"/>
				<rect x="6.47" y="13.55" class="st1" width="1.12" height="2.39"/>
				<rect x="7.59" y="11.16" class="st1" width="1.12" height="2.39"/>
				<rect x="8.71" y="13.55" class="st1" width="1.12" height="2.39"/>
				<rect x="5.35" y="15.94" class="st1" width="1.12" height="2.39"/>
				<rect x="6.47" y="18.33" class="st1" width="1.12" height="2.39"/>
				<rect x="7.59" y="15.94" class="st1" width="1.12" height="2.39"/>
				<rect x="8.71" y="18.33" class="st1" width="1.12" height="2.39"/>
				<rect x="9.84" y="1.61" class="st1" width="1.12" height="2.39"/>
				<rect x="10.96" y="3.99" class="st1" width="1.12" height="2.39"/>
				<rect x="12.08" y="1.61" class="st1" width="1.12" height="2.39"/>
				<rect x="13.2" y="3.99" class="st1" width="1.12" height="2.39"/>
				<rect x="9.84" y="6.38" class="st1" width="1.12" height="2.39"/>
				<rect x="10.96" y="8.77" class="st1" width="1.12" height="2.39"/>
				<rect x="12.08" y="6.38" class="st1" width="1.12" height="2.39"/>
				<rect x="13.2" y="8.77" class="st1" width="1.12" height="2.39"/>
				<rect x="14.33" y="1.61" class="st1" width="1.12" height="2.39"/>
				<rect x="15.45" y="3.99" class="st1" width="1.12" height="2.39"/>
				<rect x="16.57" y="1.61" class="st1" width="1.12" height="2.39"/>
				<rect x="17.7" y="3.99" class="st1" width="1.12" height="2.39"/>
				<rect x="14.33" y="6.38" class="st1" width="1.12" height="2.39"/>
				<rect x="15.45" y="8.77" class="st1" width="1.12" height="2.39"/>
				<rect x="16.57" y="6.38" class="st1" width="1.12" height="2.39"/>
				<rect x="17.7" y="8.77" class="st1" width="1.12" height="2.39"/>
				<rect x="9.84" y="11.16" class="st1" width="1.12" height="2.39"/>
				<rect x="10.96" y="13.55" class="st1" width="1.12" height="2.39"/>
				<rect x="12.08" y="11.16" class="st1" width="1.12" height="2.39"/>
				<rect x="13.2" y="13.55" class="st1" width="1.12" height="2.39"/>
				<rect x="9.84" y="15.94" class="st1" width="1.12" height="2.39"/>
				<rect x="10.96" y="18.33" class="st1" width="1.12" height="2.39"/>
				<rect x="12.08" y="15.94" class="st1" width="1.12" height="2.39"/>
				<rect x="13.2" y="18.33" class="st1" width="1.12" height="2.39"/>
				<rect x="14.33" y="11.16" class="st1" width="1.12" height="2.39"/>
				<rect x="15.45" y="13.55" class="st1" width="1.12" height="2.39"/>
				<rect x="16.57" y="11.16" class="st1" width="1.12" height="2.39"/>
				<rect x="17.7" y="13.55" class="st1" width="1.12" height="2.39"/>
				<rect x="14.33" y="15.94" class="st1" width="1.12" height="2.39"/>
				<rect x="15.45" y="18.33" class="st1" width="1.12" height="2.39"/>
				<rect x="16.57" y="15.94" class="st1" width="1.12" height="2.39"/>
				<rect x="17.7" y="18.33" class="st1" width="1.12" height="2.39"/>
				<rect x="0.85" y="20.72" class="st1" width="1.12" height="2.39"/>
				<rect x="1.98" y="23.11" class="st1" width="1.12" height="2.39"/>
				<rect x="3.1" y="20.72" class="st1" width="1.12" height="2.39"/>
				<rect x="4.22" y="23.11" class="st1" width="1.12" height="2.39"/>
				<rect x="0.85" y="25.5" class="st1" width="1.12" height="2.39"/>
				<rect x="1.98" y="27.89" class="st1" width="1.12" height="2.39"/>
				<rect x="3.1" y="25.5" class="st1" width="1.12" height="2.39"/>
				<rect x="4.22" y="27.89" class="st1" width="1.12" height="2.39"/>
				<rect x="5.35" y="20.72" class="st1" width="1.12" height="2.39"/>
				<rect x="6.47" y="23.11" class="st1" width="1.12" height="2.39"/>
				<rect x="7.59" y="20.72" class="st1" width="1.12" height="2.39"/>
				<rect x="8.71" y="23.11" class="st1" width="1.12" height="2.39"/>
				<rect x="5.35" y="25.5" class="st1" width="1.12" height="2.39"/>
				<rect x="6.47" y="27.89" class="st1" width="1.12" height="2.39"/>
				<rect x="7.59" y="25.5" class="st1" width="1.12" height="2.39"/>
				<rect x="8.71" y="27.89" class="st1" width="1.12" height="2.39"/>
				<rect x="0.85" y="30.27" class="st1" width="1.12" height="2.39"/>
				<rect x="1.98" y="32.66" class="st1" width="1.12" height="2.39"/>
				<rect x="3.1" y="30.27" class="st1" width="1.12" height="2.39"/>
				<rect x="4.22" y="32.66" class="st1" width="1.12" height="2.39"/>
				<rect x="0.85" y="35.05" class="st1" width="1.12" height="2.39"/>
				<rect x="1.98" y="37.44" class="st1" width="1.12" height="2.39"/>
				<rect x="3.1" y="35.05" class="st1" width="1.12" height="2.39"/>
				<rect x="4.22" y="37.44" class="st1" width="1.12" height="2.39"/>
				<rect x="5.35" y="30.27" class="st1" width="1.12" height="2.39"/>
				<rect x="6.47" y="32.66" class="st1" width="1.12" height="2.39"/>
				<rect x="7.59" y="30.27" class="st1" width="1.12" height="2.39"/>
				<rect x="8.71" y="32.66" class="st1" width="1.12" height="2.39"/>
				<rect x="5.35" y="35.05" class="st1" width="1.12" height="2.39"/>
				<rect x="6.47" y="37.44" class="st1" width="1.12" height="2.39"/>
				<rect x="7.59" y="35.05" class="st1" width="1.12" height="2.39"/>
				<rect x="8.71" y="37.44" class="st1" width="1.12" height="2.39"/>
				<rect x="9.84" y="20.72" class="st1" width="1.12" height="2.39"/>
				<rect x="10.96" y="23.11" class="st1" width="1.12" height="2.39"/>
				<rect x="12.08" y="20.72" class="st1" width="1.12" height="2.39"/>
				<rect x="13.2" y="23.11" class="st1" width="1.12" height="2.39"/>
				<rect x="9.84" y="25.5" class="st1" width="1.12" height="2.39"/>
				<rect x="10.96" y="27.89" class="st1" width="1.12" height="2.39"/>
				<rect x="12.08" y="25.5" class="st1" width="1.12" height="2.39"/>
				<rect x="13.2" y="27.89" class="st1" width="1.12" height="2.39"/>
				<rect x="14.33" y="20.72" class="st1" width="1.12" height="2.39"/>
				<rect x="15.45" y="23.11" class="st1" width="1.12" height="2.39"/>
				<rect x="16.57" y="20.72" class="st1" width="1.12" height="2.39"/>
				<rect x="17.7" y="23.11" class="st1" width="1.12" height="2.39"/>
				<rect x="14.33" y="25.5" class="st1" width="1.12" height="2.39"/>
				<rect x="15.45" y="27.89" class="st1" width="1.12" height="2.39"/>
				<rect x="16.57" y="25.5" class="st1" width="1.12" height="2.39"/>
				<rect x="17.7" y="27.89" class="st1" width="1.12" height="2.39"/>
				<rect x="9.84" y="30.27" class="st1" width="1.12" height="2.39"/>
				<rect x="10.96" y="32.66" class="st1" width="1.12" height="2.39"/>
				<rect x="12.08" y="30.27" class="st1" width="1.12" height="2.39"/>
				<rect x="13.2" y="32.66" class="st1" width="1.12" height="2.39"/>
				<rect x="9.84" y="35.05" class="st1" width="1.12" height="2.39"/>
				<rect x="10.96" y="37.44" class="st1" width="1.12" height="2.39"/>
				<rect x="12.08" y="35.05" class="st1" width="1.12" height="2.39"/>
				<rect x="13.2" y="37.44" class="st1" width="1.12" height="2.39"/>
				<rect x="14.33" y="30.27" class="st1" width="1.12" height="2.39"/>
				<rect x="15.45" y="32.66" class="st1" width="1.12" height="2.39"/>
				<rect x="16.57" y="30.27" class="st1" width="1.12" height="2.39"/>
				<rect x="17.7" y="32.66" class="st1" width="1.12" height="2.39"/>
				<rect x="14.33" y="35.05" class="st1" width="1.12" height="2.39"/>
				<rect x="15.45" y="37.44" class="st1" width="1.12" height="2.39"/>
				<rect x="16.57" y="35.05" class="st1" width="1.12" height="2.39"/>
				<rect x="17.7" y="37.44" class="st1" width="1.12" height="2.39"/>
				<rect x="18.82" y="1.61" class="st1" width="1.12" height="2.39"/>
				<rect x="19.94" y="3.99" class="st1" width="1.12" height="2.39"/>
				<rect x="21.06" y="1.61" class="st1" width="1.12" height="2.39"/>
				<rect x="22.19" y="3.99" class="st1" width="1.12" height="2.39"/>
				<rect x="18.82" y="6.38" class="st1" width="1.12" height="2.39"/>
				<rect x="19.94" y="8.77" class="st1" width="1.12" height="2.39"/>
				<rect x="21.06" y="6.38" class="st1" width="1.12" height="2.39"/>
				<rect x="22.19" y="8.77" class="st1" width="1.12" height="2.39"/>
				<rect x="23.31" y="1.61" class="st1" width="1.12" height="2.39"/>
				<rect x="24.43" y="3.99" class="st1" width="1.12" height="2.39"/>
				<rect x="25.55" y="1.61" class="st1" width="1.12" height="2.39"/>
				<rect x="26.68" y="3.99" class="st1" width="1.12" height="2.39"/>
				<rect x="23.31" y="6.38" class="st1" width="1.12" height="2.39"/>
				<rect x="24.43" y="8.77" class="st1" width="1.12" height="2.39"/>
				<rect x="25.55" y="6.38" class="st1" width="1.12" height="2.39"/>
				<rect x="26.68" y="8.77" class="st1" width="1.12" height="2.39"/>
				<rect x="18.82" y="11.16" class="st1" width="1.12" height="2.39"/>
				<rect x="19.94" y="13.55" class="st1" width="1.12" height="2.39"/>
				<rect x="21.06" y="11.16" class="st1" width="1.12" height="2.39"/>
				<rect x="22.19" y="13.55" class="st1" width="1.12" height="2.39"/>
				<rect x="18.82" y="15.94" class="st1" width="1.12" height="2.39"/>
				<rect x="19.94" y="18.33" class="st1" width="1.12" height="2.39"/>
				<rect x="21.06" y="15.94" class="st1" width="1.12" height="2.39"/>
				<rect x="22.19" y="18.33" class="st1" width="1.12" height="2.39"/>
				<rect x="23.31" y="11.16" class="st1" width="1.12" height="2.39"/>
				<rect x="24.43" y="13.55" class="st1" width="1.12" height="2.39"/>
				<rect x="25.55" y="11.16" class="st1" width="1.12" height="2.39"/>
				<rect x="26.68" y="13.55" class="st1" width="1.12" height="2.39"/>
				<rect x="23.31" y="15.94" class="st1" width="1.12" height="2.39"/>
				<rect x="24.43" y="18.33" class="st1" width="1.12" height="2.39"/>
				<rect x="25.55" y="15.94" class="st1" width="1.12" height="2.39"/>
				<rect x="26.68" y="18.33" class="st1" width="1.12" height="2.39"/>
				<rect x="27.8" y="1.61" class="st1" width="1.12" height="2.39"/>
				<rect x="28.92" y="3.99" class="st1" width="1.12" height="2.39"/>
				<rect x="30.05" y="1.61" class="st1" width="1.12" height="2.39"/>
				<rect x="31.17" y="3.99" class="st1" width="1.12" height="2.39"/>
				<rect x="27.8" y="6.38" class="st1" width="1.12" height="2.39"/>
				<rect x="28.92" y="8.77" class="st1" width="1.12" height="2.39"/>
				<rect x="30.05" y="6.38" class="st1" width="1.12" height="2.39"/>
				<rect x="31.17" y="8.77" class="st1" width="1.12" height="2.39"/>
				<rect x="27.8" y="11.16" class="st1" width="1.12" height="2.39"/>
				<rect x="28.92" y="13.55" class="st1" width="1.12" height="2.39"/>
				<rect x="30.05" y="11.16" class="st1" width="1.12" height="2.39"/>
				<rect x="31.17" y="13.55" class="st1" width="1.12" height="2.39"/>
				<rect x="27.8" y="15.94" class="st1" width="1.12" height="2.39"/>
				<rect x="28.92" y="18.33" class="st1" width="1.12" height="2.39"/>
				<rect x="30.05" y="15.94" class="st1" width="1.12" height="2.39"/>
				<rect x="31.17" y="18.33" class="st1" width="1.12" height="2.39"/>
				<rect x="18.82" y="20.72" class="st1" width="1.12" height="2.39"/>
				<rect x="19.94" y="23.11" class="st1" width="1.12" height="2.39"/>
				<rect x="21.06" y="20.72" class="st1" width="1.12" height="2.39"/>
				<rect x="22.19" y="23.11" class="st1" width="1.12" height="2.39"/>
				<rect x="18.82" y="25.5" class="st1" width="1.12" height="2.39"/>
				<rect x="19.94" y="27.89" class="st1" width="1.12" height="2.39"/>
				<rect x="21.06" y="25.5" class="st1" width="1.12" height="2.39"/>
				<rect x="22.19" y="27.89" class="st1" width="1.12" height="2.39"/>
				<rect x="23.31" y="20.72" class="st1" width="1.12" height="2.39"/>
				<rect x="24.43" y="23.11" class="st1" width="1.12" height="2.39"/>
				<rect x="25.55" y="20.72" class="st1" width="1.12" height="2.39"/>
				<rect x="26.68" y="23.11" class="st1" width="1.12" height="2.39"/>
				<rect x="23.31" y="25.5" class="st1" width="1.12" height="2.39"/>
				<rect x="24.43" y="27.89" class="st1" width="1.12" height="2.39"/>
				<rect x="25.55" y="25.5" class="st1" width="1.12" height="2.39"/>
				<rect x="26.68" y="27.89" class="st1" width="1.12" height="2.39"/>
				<rect x="18.82" y="30.27" class="st1" width="1.12" height="2.39"/>
				<rect x="19.94" y="32.66" class="st1" width="1.12" height="2.39"/>
				<rect x="21.06" y="30.27" class="st1" width="1.12" height="2.39"/>
				<rect x="22.19" y="32.66" class="st1" width="1.12" height="2.39"/>
				<rect x="18.82" y="35.05" class="st1" width="1.12" height="2.39"/>
				<rect x="19.94" y="37.44" class="st1" width="1.12" height="2.39"/>
				<rect x="21.06" y="35.05" class="st1" width="1.12" height="2.39"/>
				<rect x="22.19" y="37.44" class="st1" width="1.12" height="2.39"/>
				<rect x="23.31" y="30.27" class="st1" width="1.12" height="2.39"/>
				<rect x="24.43" y="32.66" class="st1" width="1.12" height="2.39"/>
				<rect x="25.55" y="30.27" class="st1" width="1.12" height="2.39"/>
				<rect x="26.68" y="32.66" class="st1" width="1.12" height="2.39"/>
				<rect x="23.31" y="35.05" class="st1" width="1.12" height="2.39"/>
				<rect x="24.43" y="37.44" class="st1" width="1.12" height="2.39"/>
				<rect x="25.55" y="35.05" class="st1" width="1.12" height="2.39"/>
				<rect x="26.68" y="37.44" class="st1" width="1.12" height="2.39"/>
				<rect x="27.8" y="20.72" class="st1" width="1.12" height="2.39"/>
				<rect x="28.92" y="23.11" class="st1" width="1.12" height="2.39"/>
				<rect x="30.05" y="20.72" class="st1" width="1.12" height="2.39"/>
				<rect x="31.17" y="23.11" class="st1" width="1.12" height="2.39"/>
				<rect x="27.8" y="25.5" class="st1" width="1.12" height="2.39"/>
				<rect x="28.92" y="27.89" class="st1" width="1.12" height="2.39"/>
				<rect x="30.05" y="25.5" class="st1" width="1.12" height="2.39"/>
				<rect x="31.17" y="27.89" class="st1" width="1.12" height="2.39"/>
				<rect x="27.8" y="30.27" class="st1" width="1.12" height="2.39"/>
				<rect x="28.92" y="32.66" class="st1" width="1.12" height="2.39"/>
				<rect x="30.05" y="30.27" class="st1" width="1.12" height="2.39"/>
				<rect x="31.17" y="32.66" class="st1" width="1.12" height="2.39"/>
				<rect x="27.8" y="35.05" class="st1" width="1.12" height="2.39"/>
				<rect x="28.92" y="37.44" class="st1" width="1.12" height="2.39"/>
				<rect x="30.05" y="35.05" class="st1" width="1.12" height="2.39"/>
				<rect x="31.17" y="37.44" class="st1" width="1.12" height="2.39"/>
			</g>
			<g>
				<rect x="0.85" y="39.83" class="st1" width="1.12" height="2.39"/>
				<rect x="1.98" y="42.22" class="st1" width="1.12" height="2.39"/>
				<rect x="3.1" y="39.83" class="st1" width="1.12" height="2.39"/>
				<rect x="4.22" y="42.22" class="st1" width="1.12" height="2.39"/>
				<rect x="0.85" y="44.61" class="st1" width="1.12" height="2.39"/>
				<rect x="1.98" y="47" class="st1" width="1.12" height="2.39"/>
				<rect x="3.1" y="44.61" class="st1" width="1.12" height="2.39"/>
				<rect x="4.22" y="47" class="st1" width="1.12" height="2.39"/>
				<rect x="5.35" y="39.83" class="st1" width="1.12" height="2.39"/>
				<rect x="6.47" y="42.22" class="st1" width="1.12" height="2.39"/>
				<rect x="7.59" y="39.83" class="st1" width="1.12" height="2.39"/>
				<rect x="8.71" y="42.22" class="st1" width="1.12" height="2.39"/>
				<rect x="5.35" y="44.61" class="st1" width="1.12" height="2.39"/>
				<rect x="6.47" y="47" class="st1" width="1.12" height="2.39"/>
				<rect x="7.59" y="44.61" class="st1" width="1.12" height="2.39"/>
				<rect x="8.71" y="47" class="st1" width="1.12" height="2.39"/>
				<rect x="0.85" y="49.39" class="st1" width="1.12" height="2.39"/>
				<rect x="1.98" y="51.78" class="st1" width="1.12" height="2.39"/>
				<rect x="3.1" y="49.39" class="st1" width="1.12" height="2.39"/>
				<rect x="4.22" y="51.78" class="st1" width="1.12" height="2.39"/>
				<rect x="0.85" y="54.17" class="st1" width="1.12" height="2.39"/>
				<rect x="1.98" y="56.55" class="st1" width="1.12" height="2.39"/>
				<rect x="3.1" y="54.17" class="st1" width="1.12" height="2.39"/>
				<rect x="4.22" y="56.55" class="st1" width="1.12" height="2.39"/>
				<rect x="5.35" y="49.39" class="st1" width="1.12" height="2.39"/>
				<rect x="6.47" y="51.78" class="st1" width="1.12" height="2.39"/>
				<rect x="7.59" y="49.39" class="st1" width="1.12" height="2.39"/>
				<rect x="8.71" y="51.78" class="st1" width="1.12" height="2.39"/>
				<rect x="5.35" y="54.17" class="st1" width="1.12" height="2.39"/>
				<rect x="6.47" y="56.55" class="st1" width="1.12" height="2.39"/>
				<rect x="7.59" y="54.17" class="st1" width="1.12" height="2.39"/>
				<rect x="8.71" y="56.55" class="st1" width="1.12" height="2.39"/>
				<rect x="9.84" y="39.83" class="st1" width="1.12" height="2.39"/>
				<rect x="10.96" y="42.22" class="st1" width="1.12" height="2.39"/>
				<rect x="12.08" y="39.83" class="st1" width="1.12" height="2.39"/>
				<rect x="13.2" y="42.22" class="st1" width="1.12" height="2.39"/>
				<rect x="9.84" y="44.61" class="st1" width="1.12" height="2.39"/>
				<rect x="10.96" y="47" class="st1" width="1.12" height="2.39"/>
				<rect x="12.08" y="44.61" class="st1" width="1.12" height="2.39"/>
				<rect x="13.2" y="47" class="st1" width="1.12" height="2.39"/>
				<rect x="14.33" y="39.83" class="st1" width="1.12" height="2.39"/>
				<rect x="15.45" y="42.22" class="st1" width="1.12" height="2.39"/>
				<rect x="16.57" y="39.83" class="st1" width="1.12" height="2.39"/>
				<rect x="17.7" y="42.22" class="st1" width="1.12" height="2.39"/>
				<rect x="14.33" y="44.61" class="st1" width="1.12" height="2.39"/>
				<rect x="15.45" y="47" class="st1" width="1.12" height="2.39"/>
				<rect x="16.57" y="44.61" class="st1" width="1.12" height="2.39"/>
				<rect x="17.7" y="47" class="st1" width="1.12" height="2.39"/>
				<rect x="9.84" y="49.39" class="st1" width="1.12" height="2.39"/>
				<rect x="10.96" y="51.78" class="st1" width="1.12" height="2.39"/>
				<rect x="12.08" y="49.39" class="st1" width="1.12" height="2.39"/>
				<rect x="13.2" y="51.78" class="st1" width="1.12" height="2.39"/>
				<rect x="9.84" y="54.17" class="st1" width="1.12" height="2.39"/>
				<rect x="10.96" y="56.55" class="st1" width="1.12" height="2.39"/>
				<rect x="12.08" y="54.17" class="st1" width="1.12" height="2.39"/>
				<rect x="13.2" y="56.55" class="st1" width="1.12" height="2.39"/>
				<rect x="14.33" y="49.39" class="st1" width="1.12" height="2.39"/>
				<rect x="15.45" y="51.78" class="st1" width="1.12" height="2.39"/>
				<rect x="16.57" y="49.39" class="st1" width="1.12" height="2.39"/>
				<rect x="17.7" y="51.78" class="st1" width="1.12" height="2.39"/>
				<rect x="14.33" y="54.17" class="st1" width="1.12" height="2.39"/>
				<rect x="15.45" y="56.55" class="st1" width="1.12" height="2.39"/>
				<rect x="16.57" y="54.17" class="st1" width="1.12" height="2.39"/>
				<rect x="17.7" y="56.55" class="st1" width="1.12" height="2.39"/>
				<rect x="0.85" y="58.94" class="st1" width="1.12" height="2.39"/>
				<rect x="1.98" y="61.33" class="st1" width="1.12" height="2.39"/>
				<rect x="3.1" y="58.94" class="st1" width="1.12" height="2.39"/>
				<rect x="4.22" y="61.33" class="st1" width="1.12" height="2.39"/>
				<rect x="0.85" y="63.72" class="st1" width="1.12" height="2.39"/>
				<rect x="1.98" y="66.11" class="st1" width="1.12" height="2.39"/>
				<rect x="3.1" y="63.72" class="st1" width="1.12" height="2.39"/>
				<rect x="4.22" y="66.11" class="st1" width="1.12" height="2.39"/>
				<rect x="5.35" y="58.94" class="st1" width="1.12" height="2.39"/>
				<rect x="6.47" y="61.33" class="st1" width="1.12" height="2.39"/>
				<rect x="7.59" y="58.94" class="st1" width="1.12" height="2.39"/>
				<rect x="8.71" y="61.33" class="st1" width="1.12" height="2.39"/>
				<rect x="5.35" y="63.72" class="st1" width="1.12" height="2.39"/>
				<rect x="6.47" y="66.11" class="st1" width="1.12" height="2.39"/>
				<rect x="7.59" y="63.72" class="st1" width="1.12" height="2.39"/>
				<rect x="8.71" y="66.11" class="st1" width="1.12" height="2.39"/>
				<rect x="9.84" y="58.94" class="st1" width="1.12" height="2.39"/>
				<rect x="10.96" y="61.33" class="st1" width="1.12" height="2.39"/>
				<rect x="12.08" y="58.94" class="st1" width="1.12" height="2.39"/>
				<rect x="13.2" y="61.33" class="st1" width="1.12" height="2.39"/>
				<rect x="9.84" y="63.72" class="st1" width="1.12" height="2.39"/>
				<rect x="10.96" y="66.11" class="st1" width="1.12" height="2.39"/>
				<rect x="12.08" y="63.72" class="st1" width="1.12" height="2.39"/>
				<rect x="13.2" y="66.11" class="st1" width="1.12" height="2.39"/>
				<rect x="14.33" y="58.94" class="st1" width="1.12" height="2.39"/>
				<rect x="15.45" y="61.33" class="st1" width="1.12" height="2.39"/>
				<rect x="16.57" y="58.94" class="st1" width="1.12" height="2.39"/>
				<rect x="17.7" y="61.33" class="st1" width="1.12" height="2.39"/>
				<rect x="14.33" y="63.72" class="st1" width="1.12" height="2.39"/>
				<rect x="15.45" y="66.11" class="st1" width="1.12" height="2.39"/>
				<rect x="16.57" y="63.72" class="st1" width="1.12" height="2.39"/>
				<rect x="17.7" y="66.11" class="st1" width="1.12" height="2.39"/>
				<rect x="18.82" y="39.83" class="st1" width="1.12" height="2.39"/>
				<rect x="19.94" y="42.22" class="st1" width="1.12" height="2.39"/>
				<rect x="21.06" y="39.83" class="st1" width="1.12" height="2.39"/>
				<rect x="22.19" y="42.22" class="st1" width="1.12" height="2.39"/>
				<rect x="18.82" y="44.61" class="st1" width="1.12" height="2.39"/>
				<rect x="19.94" y="47" class="st1" width="1.12" height="2.39"/>
				<rect x="21.06" y="44.61" class="st1" width="1.12" height="2.39"/>
				<rect x="22.19" y="47" class="st1" width="1.12" height="2.39"/>
				<rect x="23.31" y="39.83" class="st1" width="1.12" height="2.39"/>
				<rect x="24.43" y="42.22" class="st1" width="1.12" height="2.39"/>
				<rect x="25.55" y="39.83" class="st1" width="1.12" height="2.39"/>
				<rect x="26.68" y="42.22" class="st1" width="1.12" height="2.39"/>
				<rect x="23.31" y="44.61" class="st1" width="1.12" height="2.39"/>
				<rect x="24.43" y="47" class="st1" width="1.12" height="2.39"/>
				<rect x="25.55" y="44.61" class="st1" width="1.12" height="2.39"/>
				<rect x="26.68" y="47" class="st1" width="1.12" height="2.39"/>
				<rect x="18.82" y="49.39" class="st1" width="1.12" height="2.39"/>
				<rect x="19.94" y="51.78" class="st1" width="1.12" height="2.39"/>
				<rect x="21.06" y="49.39" class="st1" width="1.12" height="2.39"/>
				<rect x="22.19" y="51.78" class="st1" width="1.12" height="2.39"/>
				<rect x="18.82" y="54.17" class="st1" width="1.12" height="2.39"/>
				<rect x="19.94" y="56.55" class="st1" width="1.12" height="2.39"/>
				<rect x="21.06" y="54.17" class="st1" width="1.12" height="2.39"/>
				<rect x="22.19" y="56.55" class="st1" width="1.12" height="2.39"/>
				<rect x="23.31" y="49.39" class="st1" width="1.12" height="2.39"/>
				<rect x="24.43" y="51.78" class="st1" width="1.12" height="2.39"/>
				<rect x="25.55" y="49.39" class="st1" width="1.12" height="2.39"/>
				<rect x="26.68" y="51.78" class="st1" width="1.12" height="2.39"/>
				<rect x="23.31" y="54.17" class="st1" width="1.12" height="2.39"/>
				<rect x="24.43" y="56.55" class="st1" width="1.12" height="2.39"/>
				<rect x="25.55" y="54.17" class="st1" width="1.12" height="2.39"/>
				<rect x="26.68" y="56.55" class="st1" width="1.12" height="2.39"/>
				<rect x="27.8" y="39.83" class="st1" width="1.12" height="2.39"/>
				<rect x="28.92" y="42.22" class="st1" width="1.12" height="2.39"/>
				<rect x="30.05" y="39.83" class="st1" width="1.12" height="2.39"/>
				<rect x="31.17" y="42.22" class="st1" width="1.12" height="2.39"/>
				<rect x="27.8" y="44.61" class="st1" width="1.12" height="2.39"/>
				<rect x="28.92" y="47" class="st1" width="1.12" height="2.39"/>
				<rect x="30.05" y="44.61" class="st1" width="1.12" height="2.39"/>
				<rect x="31.17" y="47" class="st1" width="1.12" height="2.39"/>
				<rect x="27.8" y="49.39" class="st1" width="1.12" height="2.39"/>
				<rect x="28.92" y="51.78" class="st1" width="1.12" height="2.39"/>
				<rect x="30.05" y="49.39" class="st1" width="1.12" height="2.39"/>
				<rect x="31.17" y="51.78" class="st1" width="1.12" height="2.39"/>
				<rect x="27.8" y="54.17" class="st1" width="1.12" height="2.39"/>
				<rect x="28.92" y="56.55" class="st1" width="1.12" height="2.39"/>
				<rect x="30.05" y="54.17" class="st1" width="1.12" height="2.39"/>
				<rect x="31.17" y="56.55" class="st1" width="1.12" height="2.39"/>
				<rect x="18.82" y="58.94" class="st1" width="1.12" height="2.39"/>
				<rect x="19.94" y="61.33" class="st1" width="1.12" height="2.39"/>
				<rect x="21.06" y="58.94" class="st1" width="1.12" height="2.39"/>
				<rect x="22.19" y="61.33" class="st1" width="1.12" height="2.39"/>
				<rect x="18.82" y="63.72" class="st1" width="1.12" height="2.39"/>
				<rect x="19.94" y="66.11" class="st1" width="1.12" height="2.39"/>
				<rect x="21.06" y="63.72" class="st1" width="1.12" height="2.39"/>
				<rect x="22.19" y="66.11" class="st1" width="1.12" height="2.39"/>
				<rect x="23.31" y="58.94" class="st1" width="1.12" height="2.39"/>
				<rect x="24.43" y="61.33" class="st1" width="1.12" height="2.39"/>
				<rect x="25.55" y="58.94" class="st1" width="1.12" height="2.39"/>
				<rect x="26.68" y="61.33" class="st1" width="1.12" height="2.39"/>
				<rect x="23.31" y="63.72" class="st1" width="1.12" height="2.39"/>
				<rect x="24.43" y="66.11" class="st1" width="1.12" height="2.39"/>
				<rect x="25.55" y="63.72" class="st1" width="1.12" height="2.39"/>
				<rect x="26.68" y="66.11" class="st1" width="1.12" height="2.39"/>
				<rect x="27.8" y="58.94" class="st1" width="1.12" height="2.39"/>
				<rect x="28.92" y="61.33" class="st1" width="1.12" height="2.39"/>
				<rect x="30.05" y="58.94" class="st1" width="1.12" height="2.39"/>
				<rect x="31.17" y="61.33" class="st1" width="1.12" height="2.39"/>
				<rect x="27.8" y="63.72" class="st1" width="1.12" height="2.39"/>
				<rect x="28.92" y="66.11" class="st1" width="1.12" height="2.39"/>
				<rect x="30.05" y="63.72" class="st1" width="1.12" height="2.39"/>
				<rect x="31.17" y="66.11" class="st1" width="1.12" height="2.39"/>
			</g>
		</g>
	</g>
</g>
<g>
	<g>
		<path d="M25.98,48.17c-6.92,0-12.56-5.63-12.56-12.56v-11.7c0-6.92,5.63-12.56,12.56-12.56s12.56,5.63,12.56,12.56v11.7
			C38.54,42.54,32.91,48.17,25.98,48.17z M25.98,12.63c-6.22,0-11.29,5.06-11.29,11.29v11.7c0,6.22,5.06,11.29,11.29,11.29
			c6.22,0,11.29-5.06,11.29-11.29v-11.7C37.27,17.69,32.21,12.63,25.98,12.63z"/>
	</g>
	<g>
		<path d="M25.98,28.07c-1.4,0-2.53-1.14-2.53-2.53v-4.87c0-1.4,1.14-2.53,2.53-2.53c1.4,0,2.53,1.14,2.53,2.53v4.87
			C28.51,26.93,27.38,28.07,25.98,28.07z M25.98,19.41c-0.69,0-1.26,0.56-1.26,1.26v4.87c0,0.69,0.56,1.26,1.26,1.26
			c0.69,0,1.26-0.56,1.26-1.26v-4.87C27.24,19.97,26.68,19.41,25.98,19.41z"/>
	</g>
	<g>
		<path d="M25.98,64.69c-0.14,0-0.28-0.05-0.4-0.14L13.91,55.1c-0.27-0.22-0.32-0.62-0.09-0.89c0.22-0.27,0.62-0.31,0.89-0.09
			l11.28,9.13l11.28-9.13c0.27-0.22,0.67-0.18,0.89,0.09c0.22,0.27,0.18,0.67-0.09,0.89l-11.68,9.45
			C26.27,64.65,26.13,64.69,25.98,64.69z"/>
	</g>
	<g>
		<path d="M25.98,59.97c-0.14,0-0.28-0.05-0.4-0.14l-11.68-9.45c-0.27-0.22-0.32-0.62-0.09-0.89c0.22-0.27,0.62-0.31,0.89-0.09
			l11.28,9.13l11.28-9.13c0.27-0.22,0.67-0.18,0.89,0.09c0.22,0.27,0.18,0.67-0.09,0.89l-11.68,9.45
			C26.27,59.92,26.13,59.97,25.98,59.97z"/>
	</g>
</g>
<text transform="matrix(1 0 0 1 6.676 8.9554)" class="st2 st3">SCROLL DOWN</text>
</svg>
